<mxfile host="65bd71144e" modified="2021-02-04T09:20:14.119Z" agent="5.0 (Macintosh; Intel Mac OS X 10_12_3) AppleWebKit/537.36 (KHTML, like Gecko) Code/1.46.0 Chrome/78.0.3904.130 Electron/7.3.1 Safari/537.36" etag="EIZ7-TOtHiSLn9zc8TjD" version="13.10.0" type="embed" pages="2">
    <diagram id="bBdrPgjlm9iaJxvOy8-b" name="flow">
        <mxGraphModel dx="1667" dy="742" grid="1" gridSize="10" guides="1" tooltips="1" connect="1" arrows="1" fold="1" page="1" pageScale="1" pageWidth="827" pageHeight="1169" math="0" shadow="0">
            <root>
                <mxCell id="d7YUU5vKySYCeSN-Ihqx-0"/>
                <mxCell id="d7YUU5vKySYCeSN-Ihqx-1" parent="d7YUU5vKySYCeSN-Ihqx-0"/>
                <mxCell id="d7YUU5vKySYCeSN-Ihqx-33" value="" style="rounded=1;whiteSpace=wrap;html=1;shadow=1;fillColor=#a0522d;fontColor=#ffffff;strokeColor=none;" vertex="1" parent="d7YUU5vKySYCeSN-Ihqx-1">
                    <mxGeometry x="413" y="820" width="400" height="110" as="geometry"/>
                </mxCell>
                <mxCell id="d7YUU5vKySYCeSN-Ihqx-32" value="" style="rounded=1;whiteSpace=wrap;html=1;shadow=1;fillColor=#a0522d;fontColor=#ffffff;strokeColor=none;" vertex="1" parent="d7YUU5vKySYCeSN-Ihqx-1">
                    <mxGeometry x="413" y="985" width="400" height="110" as="geometry"/>
                </mxCell>
                <mxCell id="d7YUU5vKySYCeSN-Ihqx-2" value="P&lt;span style=&quot;font-size: 10px&quot;&gt;0&lt;/span&gt;" style="rounded=1;whiteSpace=wrap;html=1;fillColor=#60a917;fontColor=#ffffff;shadow=1;strokeColor=none;" vertex="1" parent="d7YUU5vKySYCeSN-Ihqx-1">
                    <mxGeometry x="240" y="180" width="70" height="40" as="geometry"/>
                </mxCell>
                <mxCell id="d7YUU5vKySYCeSN-Ihqx-3" value="P&lt;span style=&quot;font-size: 10px&quot;&gt;1&lt;/span&gt;" style="rounded=1;whiteSpace=wrap;html=1;fillColor=#60a917;fontColor=#ffffff;shadow=1;strokeColor=none;" vertex="1" parent="d7YUU5vKySYCeSN-Ihqx-1">
                    <mxGeometry x="360" y="180" width="70" height="40" as="geometry"/>
                </mxCell>
                <mxCell id="d7YUU5vKySYCeSN-Ihqx-4" value="P&lt;span style=&quot;font-size: 10px&quot;&gt;i&lt;/span&gt;" style="rounded=1;whiteSpace=wrap;html=1;fillColor=#60a917;fontColor=#ffffff;shadow=1;strokeColor=none;" vertex="1" parent="d7YUU5vKySYCeSN-Ihqx-1">
                    <mxGeometry x="510" y="180" width="70" height="40" as="geometry"/>
                </mxCell>
                <mxCell id="d7YUU5vKySYCeSN-Ihqx-5" value="P&lt;span style=&quot;font-size: 10px&quot;&gt;n-1&lt;/span&gt;" style="rounded=1;whiteSpace=wrap;html=1;fillColor=#60a917;fontColor=#ffffff;shadow=1;strokeColor=none;" vertex="1" parent="d7YUU5vKySYCeSN-Ihqx-1">
                    <mxGeometry x="690" y="180" width="70" height="40" as="geometry"/>
                </mxCell>
                <mxCell id="d7YUU5vKySYCeSN-Ihqx-6" value="" style="verticalLabelPosition=bottom;shadow=0;dashed=0;align=center;html=1;verticalAlign=top;strokeWidth=1;shape=mxgraph.mockup.markup.curlyBrace;strokeColor=#999999;" vertex="1" parent="d7YUU5vKySYCeSN-Ihqx-1">
                    <mxGeometry x="250" y="130" width="500" height="20" as="geometry"/>
                </mxCell>
                <mxCell id="d7YUU5vKySYCeSN-Ihqx-7" value="策略列表 P" style="text;html=1;strokeColor=none;fillColor=none;align=center;verticalAlign=middle;whiteSpace=wrap;rounded=0;shadow=1;" vertex="1" parent="d7YUU5vKySYCeSN-Ihqx-1">
                    <mxGeometry x="400" y="80" width="150" height="20" as="geometry"/>
                </mxCell>
                <mxCell id="d7YUU5vKySYCeSN-Ihqx-8" value="" style="endArrow=none;dashed=1;html=1;dashPattern=1 3;strokeWidth=2;" edge="1" parent="d7YUU5vKySYCeSN-Ihqx-1">
                    <mxGeometry width="50" height="50" relative="1" as="geometry">
                        <mxPoint x="440" y="200" as="sourcePoint"/>
                        <mxPoint x="500" y="200" as="targetPoint"/>
                    </mxGeometry>
                </mxCell>
                <mxCell id="d7YUU5vKySYCeSN-Ihqx-9" value="" style="endArrow=none;dashed=1;html=1;dashPattern=1 3;strokeWidth=2;" edge="1" parent="d7YUU5vKySYCeSN-Ihqx-1">
                    <mxGeometry width="50" height="50" relative="1" as="geometry">
                        <mxPoint x="600" y="199.5" as="sourcePoint"/>
                        <mxPoint x="660" y="199.5" as="targetPoint"/>
                    </mxGeometry>
                </mxCell>
                <mxCell id="d7YUU5vKySYCeSN-Ihqx-10" value="&lt;font style=&quot;font-size: 18px&quot;&gt;&amp;lt;Src&lt;sub&gt;i&lt;/sub&gt;, Dst&lt;sub&gt;i&lt;/sub&gt;, DstPort&lt;sub&gt;i&lt;/sub&gt;&amp;gt;&lt;/font&gt;" style="rounded=1;whiteSpace=wrap;html=1;shadow=1;" vertex="1" parent="d7YUU5vKySYCeSN-Ihqx-1">
                    <mxGeometry x="350" y="290" width="260" height="50" as="geometry"/>
                </mxCell>
                <mxCell id="d7YUU5vKySYCeSN-Ihqx-11" value="取三元组" style="text;html=1;strokeColor=none;fillColor=none;align=center;verticalAlign=middle;whiteSpace=wrap;rounded=0;shadow=1;" vertex="1" parent="d7YUU5vKySYCeSN-Ihqx-1">
                    <mxGeometry x="60" y="260" width="70" height="20" as="geometry"/>
                </mxCell>
                <mxCell id="d7YUU5vKySYCeSN-Ihqx-12" value="" style="labelPosition=right;align=left;strokeWidth=1;shape=mxgraph.mockup.markup.curlyBrace;html=1;shadow=0;dashed=0;strokeColor=#999999;direction=north;" vertex="1" parent="d7YUU5vKySYCeSN-Ihqx-1">
                    <mxGeometry x="190" y="220" width="40" height="930" as="geometry"/>
                </mxCell>
                <mxCell id="d7YUU5vKySYCeSN-Ihqx-13" value="&lt;font style=&quot;font-size: 18px&quot;&gt;&amp;lt;(Src_Start&lt;sub&gt;i&lt;/sub&gt;, Src_End&lt;sub&gt;i), &lt;/sub&gt;(Dst_Start&lt;sub&gt;i&lt;/sub&gt;, Dst_Start&lt;sub&gt;i&lt;/sub&gt;),&amp;nbsp;(DstPort_Start&lt;sub&gt;i&lt;/sub&gt;, DstPort_End&lt;sub&gt;i&lt;/sub&gt;)&amp;gt;&lt;/font&gt;" style="rounded=1;whiteSpace=wrap;html=1;shadow=1;" vertex="1" parent="d7YUU5vKySYCeSN-Ihqx-1">
                    <mxGeometry x="240" y="410" width="695" height="60" as="geometry"/>
                </mxCell>
                <mxCell id="d7YUU5vKySYCeSN-Ihqx-14" value="转换成整形" style="text;html=1;strokeColor=none;fillColor=none;align=center;verticalAlign=middle;whiteSpace=wrap;rounded=0;shadow=1;" vertex="1" parent="d7YUU5vKySYCeSN-Ihqx-1">
                    <mxGeometry x="60" y="380" width="70" height="20" as="geometry"/>
                </mxCell>
                <mxCell id="d7YUU5vKySYCeSN-Ihqx-16" value="&lt;font style=&quot;font-size: 18px&quot;&gt;&amp;lt;Src_len&lt;sub&gt;i&lt;/sub&gt;, Dst_len&lt;sub&gt;i&lt;/sub&gt;, DstPort_len&lt;sub&gt;i&lt;/sub&gt;&amp;gt;&lt;/font&gt;" style="rounded=1;whiteSpace=wrap;html=1;shadow=1;" vertex="1" parent="d7YUU5vKySYCeSN-Ihqx-1">
                    <mxGeometry x="315" y="534.5" width="370" height="50" as="geometry"/>
                </mxCell>
                <mxCell id="d7YUU5vKySYCeSN-Ihqx-17" value="取向量大小，即 用 End - Start" style="text;html=1;strokeColor=none;fillColor=none;align=center;verticalAlign=middle;whiteSpace=wrap;rounded=0;shadow=1;" vertex="1" parent="d7YUU5vKySYCeSN-Ihqx-1">
                    <mxGeometry x="-60" y="510" width="280" height="20" as="geometry"/>
                </mxCell>
                <mxCell id="d7YUU5vKySYCeSN-Ihqx-18" value="&lt;font style=&quot;font-size: 18px&quot;&gt;&amp;lt;Len&lt;sub&gt;i&lt;/sub&gt;&amp;gt;&lt;/font&gt;" style="rounded=1;whiteSpace=wrap;html=1;shadow=1;" vertex="1" parent="d7YUU5vKySYCeSN-Ihqx-1">
                    <mxGeometry x="465" y="650" width="70" height="50" as="geometry"/>
                </mxCell>
                <mxCell id="d7YUU5vKySYCeSN-Ihqx-19" value="计算三元组三个元素的和" style="text;html=1;strokeColor=none;fillColor=none;align=center;verticalAlign=middle;whiteSpace=wrap;rounded=0;shadow=1;" vertex="1" parent="d7YUU5vKySYCeSN-Ihqx-1">
                    <mxGeometry x="15" y="610" width="175" height="20" as="geometry"/>
                </mxCell>
                <mxCell id="d7YUU5vKySYCeSN-Ihqx-29" style="edgeStyle=orthogonalEdgeStyle;rounded=0;orthogonalLoop=1;jettySize=auto;html=1;exitX=1;exitY=0.5;exitDx=0;exitDy=0;entryX=0;entryY=0.5;entryDx=0;entryDy=0;" edge="1" parent="d7YUU5vKySYCeSN-Ihqx-1" source="d7YUU5vKySYCeSN-Ihqx-20" target="d7YUU5vKySYCeSN-Ihqx-21">
                    <mxGeometry relative="1" as="geometry"/>
                </mxCell>
                <mxCell id="d7YUU5vKySYCeSN-Ihqx-20" value="Len&lt;sub&gt;x&lt;/sub&gt;" style="rounded=1;whiteSpace=wrap;html=1;shadow=1;fillColor=#76608a;fontColor=#ffffff;strokeColor=none;" vertex="1" parent="d7YUU5vKySYCeSN-Ihqx-1">
                    <mxGeometry x="277" y="845" width="120" height="60" as="geometry"/>
                </mxCell>
                <mxCell id="d7YUU5vKySYCeSN-Ihqx-21" value="i" style="rounded=1;whiteSpace=wrap;html=1;shadow=1;strokeColor=none;" vertex="1" parent="d7YUU5vKySYCeSN-Ihqx-1">
                    <mxGeometry x="433" y="845" width="120" height="60" as="geometry"/>
                </mxCell>
                <mxCell id="d7YUU5vKySYCeSN-Ihqx-22" value="j" style="rounded=1;whiteSpace=wrap;html=1;shadow=1;strokeColor=none;" vertex="1" parent="d7YUU5vKySYCeSN-Ihqx-1">
                    <mxGeometry x="673" y="845" width="120" height="60" as="geometry"/>
                </mxCell>
                <mxCell id="d7YUU5vKySYCeSN-Ihqx-31" style="edgeStyle=orthogonalEdgeStyle;rounded=0;orthogonalLoop=1;jettySize=auto;html=1;exitX=1;exitY=0.5;exitDx=0;exitDy=0;entryX=0;entryY=0.5;entryDx=0;entryDy=0;" edge="1" parent="d7YUU5vKySYCeSN-Ihqx-1" source="d7YUU5vKySYCeSN-Ihqx-23" target="d7YUU5vKySYCeSN-Ihqx-25">
                    <mxGeometry relative="1" as="geometry"/>
                </mxCell>
                <mxCell id="d7YUU5vKySYCeSN-Ihqx-23" value="Len&lt;sub&gt;y&lt;/sub&gt;" style="rounded=1;whiteSpace=wrap;html=1;shadow=1;fillColor=#76608a;fontColor=#ffffff;strokeColor=none;" vertex="1" parent="d7YUU5vKySYCeSN-Ihqx-1">
                    <mxGeometry x="277" y="1005" width="120" height="60" as="geometry"/>
                </mxCell>
                <mxCell id="d7YUU5vKySYCeSN-Ihqx-24" value="" style="endArrow=none;dashed=1;html=1;dashPattern=1 3;strokeWidth=2;" edge="1" parent="d7YUU5vKySYCeSN-Ihqx-1">
                    <mxGeometry width="50" height="50" relative="1" as="geometry">
                        <mxPoint x="343" y="985" as="sourcePoint"/>
                        <mxPoint x="343" y="925" as="targetPoint"/>
                    </mxGeometry>
                </mxCell>
                <mxCell id="d7YUU5vKySYCeSN-Ihqx-25" value="k" style="rounded=1;whiteSpace=wrap;html=1;shadow=1;strokeColor=none;" vertex="1" parent="d7YUU5vKySYCeSN-Ihqx-1">
                    <mxGeometry x="433" y="1005" width="120" height="60" as="geometry"/>
                </mxCell>
                <mxCell id="d7YUU5vKySYCeSN-Ihqx-26" value="l" style="rounded=1;whiteSpace=wrap;html=1;shadow=1;strokeColor=none;" vertex="1" parent="d7YUU5vKySYCeSN-Ihqx-1">
                    <mxGeometry x="673" y="1005" width="120" height="60" as="geometry"/>
                </mxCell>
                <mxCell id="d7YUU5vKySYCeSN-Ihqx-27" value="" style="endArrow=none;dashed=1;html=1;dashPattern=1 3;strokeWidth=2;" edge="1" parent="d7YUU5vKySYCeSN-Ihqx-1">
                    <mxGeometry width="50" height="50" relative="1" as="geometry">
                        <mxPoint x="663" y="875" as="sourcePoint"/>
                        <mxPoint x="573" y="875" as="targetPoint"/>
                    </mxGeometry>
                </mxCell>
                <mxCell id="d7YUU5vKySYCeSN-Ihqx-28" value="" style="endArrow=none;dashed=1;html=1;dashPattern=1 3;strokeWidth=2;" edge="1" parent="d7YUU5vKySYCeSN-Ihqx-1">
                    <mxGeometry width="50" height="50" relative="1" as="geometry">
                        <mxPoint x="663" y="1034.5" as="sourcePoint"/>
                        <mxPoint x="573" y="1034.5" as="targetPoint"/>
                    </mxGeometry>
                </mxCell>
                <mxCell id="d7YUU5vKySYCeSN-Ihqx-34" value="建立 len 和 策略下标的映射关系&lt;br&gt;len 是可以重复的，所以 key 是 len，value 是 策略下标列表" style="text;html=1;strokeColor=none;fillColor=none;align=center;verticalAlign=middle;whiteSpace=wrap;rounded=0;shadow=1;" vertex="1" parent="d7YUU5vKySYCeSN-Ihqx-1">
                    <mxGeometry x="-38.75" y="760" width="237.5" height="210" as="geometry"/>
                </mxCell>
                <mxCell id="d7YUU5vKySYCeSN-Ihqx-35" value="策略搜索输入" style="text;html=1;strokeColor=none;fillColor=none;align=center;verticalAlign=middle;whiteSpace=wrap;rounded=0;shadow=1;" vertex="1" parent="d7YUU5vKySYCeSN-Ihqx-1">
                    <mxGeometry x="1085" y="100" width="150" height="20" as="geometry"/>
                </mxCell>
                <mxCell id="d7YUU5vKySYCeSN-Ihqx-36" value="" style="endArrow=none;dashed=1;html=1;dashPattern=1 3;strokeWidth=2;" edge="1" parent="d7YUU5vKySYCeSN-Ihqx-1">
                    <mxGeometry width="50" height="50" relative="1" as="geometry">
                        <mxPoint x="1000" y="1172.4000244140625" as="sourcePoint"/>
                        <mxPoint x="1000" y="110" as="targetPoint"/>
                    </mxGeometry>
                </mxCell>
                <mxCell id="d7YUU5vKySYCeSN-Ihqx-37" value="x" style="rounded=1;whiteSpace=wrap;html=1;fillColor=#60a917;fontColor=#ffffff;shadow=1;strokeColor=none;" vertex="1" parent="d7YUU5vKySYCeSN-Ihqx-1">
                    <mxGeometry x="1110" y="180" width="70" height="40" as="geometry"/>
                </mxCell>
                <mxCell id="d7YUU5vKySYCeSN-Ihqx-38" value="&lt;font style=&quot;font-size: 18px&quot;&gt;&amp;lt;Src, Dst, DstPort&amp;gt;&lt;/font&gt;" style="rounded=1;whiteSpace=wrap;html=1;shadow=1;" vertex="1" parent="d7YUU5vKySYCeSN-Ihqx-1">
                    <mxGeometry x="1030" y="300" width="260" height="50" as="geometry"/>
                </mxCell>
                <mxCell id="d7YUU5vKySYCeSN-Ihqx-39" value="&lt;font style=&quot;font-size: 18px&quot;&gt;&amp;lt;(Src_Start, Src_End&lt;sub&gt;), &lt;/sub&gt;(Dst_Start, Dst_Start),&amp;nbsp;(DstPort_Start, DstPort_End)&amp;gt;&lt;/font&gt;" style="rounded=1;whiteSpace=wrap;html=1;shadow=1;" vertex="1" parent="d7YUU5vKySYCeSN-Ihqx-1">
                    <mxGeometry x="1020" y="410" width="695" height="60" as="geometry"/>
                </mxCell>
                <mxCell id="d7YUU5vKySYCeSN-Ihqx-40" value="&lt;font style=&quot;font-size: 18px&quot;&gt;&amp;lt;Src_len, Dst_len, DstPort_len&amp;gt;&lt;/font&gt;" style="rounded=1;whiteSpace=wrap;html=1;shadow=1;" vertex="1" parent="d7YUU5vKySYCeSN-Ihqx-1">
                    <mxGeometry x="1020" y="530" width="370" height="50" as="geometry"/>
                </mxCell>
                <mxCell id="d7YUU5vKySYCeSN-Ihqx-41" value="&lt;font style=&quot;font-size: 18px&quot;&gt;&amp;lt;Len&amp;gt;&lt;/font&gt;" style="rounded=1;whiteSpace=wrap;html=1;shadow=1;" vertex="1" parent="d7YUU5vKySYCeSN-Ihqx-1">
                    <mxGeometry x="1140" y="650" width="70" height="50" as="geometry"/>
                </mxCell>
                <mxCell id="d7YUU5vKySYCeSN-Ihqx-42" value="&lt;span style=&quot;font-size: 18px&quot;&gt;(i, j, ...)&lt;/span&gt;" style="rounded=1;whiteSpace=wrap;html=1;shadow=1;" vertex="1" parent="d7YUU5vKySYCeSN-Ihqx-1">
                    <mxGeometry x="1140" y="820" width="70" height="50" as="geometry"/>
                </mxCell>
                <mxCell id="d7YUU5vKySYCeSN-Ihqx-43" value="&lt;span style=&quot;font-size: 18px&quot;&gt;(P&lt;sub&gt;i&lt;/sub&gt;, P&lt;sub&gt;j&lt;/sub&gt;, ...)&lt;/span&gt;" style="rounded=1;whiteSpace=wrap;html=1;shadow=1;" vertex="1" parent="d7YUU5vKySYCeSN-Ihqx-1">
                    <mxGeometry x="1130" y="930" width="130" height="80" as="geometry"/>
                </mxCell>
                <mxCell id="d7YUU5vKySYCeSN-Ihqx-44" value="从 map里取 对应 Len 的策略下标列表" style="text;html=1;strokeColor=none;fillColor=none;align=center;verticalAlign=middle;whiteSpace=wrap;rounded=0;shadow=1;" vertex="1" parent="d7YUU5vKySYCeSN-Ihqx-1">
                    <mxGeometry x="1420" y="760" width="240" height="25" as="geometry"/>
                </mxCell>
                <mxCell id="d7YUU5vKySYCeSN-Ihqx-45" value="遍历下标列表，取对应的策略并和 x 进行关系判断，符合输入则加入结果列表" style="text;html=1;strokeColor=none;fillColor=none;align=center;verticalAlign=middle;whiteSpace=wrap;rounded=0;shadow=1;" vertex="1" parent="d7YUU5vKySYCeSN-Ihqx-1">
                    <mxGeometry x="1420" y="940" width="240" height="25" as="geometry"/>
                </mxCell>
            </root>
        </mxGraphModel>
    </diagram>
    <diagram id="JCMAhr-MhOGJcvX1ZVky" name="Page-1">
        <mxGraphModel dx="840" dy="742" grid="1" gridSize="10" guides="1" tooltips="1" connect="1" arrows="1" fold="1" page="1" pageScale="1" pageWidth="827" pageHeight="1169" math="0" shadow="0">
            <root>
                <mxCell id="0"/>
                <mxCell id="1" parent="0"/>
                <mxCell id="2" value="&lt;font style=&quot;font-size: 25px&quot;&gt;A&lt;/font&gt;" style="ellipse;whiteSpace=wrap;html=1;aspect=fixed;shadow=1;fillColor=#fa6800;strokeColor=#C73500;fontColor=#ffffff;" parent="1" vertex="1">
                    <mxGeometry x="259" y="130" width="310" height="310" as="geometry"/>
                </mxCell>
                <mxCell id="3" value="&lt;font style=&quot;font-size: 18px&quot;&gt;X&lt;sub&gt;i&lt;/sub&gt;&lt;/font&gt;" style="ellipse;whiteSpace=wrap;html=1;aspect=fixed;fillColor=#e51400;strokeColor=#B20000;shadow=1;fontColor=#ffffff;" parent="1" vertex="1">
                    <mxGeometry x="440" y="310" width="80" height="80" as="geometry"/>
                </mxCell>
                <mxCell id="15" value="" style="ellipse;whiteSpace=wrap;html=1;aspect=fixed;shadow=1;" parent="1" vertex="1">
                    <mxGeometry x="490" y="360" width="20" height="20" as="geometry"/>
                </mxCell>
                <object label="compressed-distribution" id="4">
                    <mxCell parent="0"/>
                </object>
                <mxCell id="5" value="" style="endArrow=classic;html=1;" parent="4" edge="1">
                    <mxGeometry width="50" height="50" relative="1" as="geometry">
                        <mxPoint x="160" y="360" as="sourcePoint"/>
                        <mxPoint x="160" y="120" as="targetPoint"/>
                    </mxGeometry>
                </mxCell>
                <mxCell id="6" value="" style="endArrow=classic;html=1;" parent="4" edge="1">
                    <mxGeometry width="50" height="50" relative="1" as="geometry">
                        <mxPoint x="160" y="360" as="sourcePoint"/>
                        <mxPoint x="580" y="360" as="targetPoint"/>
                    </mxGeometry>
                </mxCell>
                <mxCell id="7" value="" style="curved=1;endArrow=none;html=1;endFill=0;" parent="4" edge="1">
                    <mxGeometry width="50" height="50" relative="1" as="geometry">
                        <mxPoint x="220" y="340" as="sourcePoint"/>
                        <mxPoint x="460" y="340" as="targetPoint"/>
                        <Array as="points">
                            <mxPoint x="280" y="240"/>
                            <mxPoint x="350" y="100"/>
                        </Array>
                    </mxGeometry>
                </mxCell>
                <mxCell id="8" value="" style="endArrow=classic;html=1;" parent="4" edge="1">
                    <mxGeometry width="50" height="50" relative="1" as="geometry">
                        <mxPoint x="160" y="680" as="sourcePoint"/>
                        <mxPoint x="160" y="440" as="targetPoint"/>
                    </mxGeometry>
                </mxCell>
                <mxCell id="9" value="" style="endArrow=classic;html=1;" parent="4" edge="1">
                    <mxGeometry width="50" height="50" relative="1" as="geometry">
                        <mxPoint x="160" y="680" as="sourcePoint"/>
                        <mxPoint x="580" y="680" as="targetPoint"/>
                    </mxGeometry>
                </mxCell>
                <mxCell id="11" value="" style="endArrow=none;html=1;" parent="4" edge="1">
                    <mxGeometry width="50" height="50" relative="1" as="geometry">
                        <mxPoint x="180" y="640" as="sourcePoint"/>
                        <mxPoint x="570" y="640" as="targetPoint"/>
                    </mxGeometry>
                </mxCell>
            </root>
        </mxGraphModel>
    </diagram>
</mxfile>